<svg width="174" height="184" viewBox="0 0 174 184" fill="none" xmlns="http://www.w3.org/2000/svg"><path d="M0 0H174V184H0V0Z" stroke="black" stroke-linecap="round" stroke-linejoin="round" /><path d="M107.716 17.9336C110.833 16.4396 113.817 16.1191 117.242 17.1182C120.698 18.126 124.626 20.4837 129.592 24.4092C150.678 41.077 160.536 66.2623 157.613 96.167C156.579 106.75 153.337 118.665 149.578 125.766C142.358 139.404 127.395 154.054 114.791 159.855C104.182 164.738 95.8994 166.499 83.6221 166.482C74.8004 166.47 67.8104 165.708 61.252 163.805C54.6942 161.902 48.5417 158.852 41.4053 154.235C16.0371 137.825 1.73114 109.135 3.9248 79.0771C4.29293 74.0361 4.8073 71.0252 5.96191 68.9375C7.0946 66.8895 8.88012 65.6702 12.0098 64.335C14.5906 63.2343 17.8378 61.7502 19.2285 61.0361C43.8046 48.4122 80.2638 30.5315 97.0312 22.8799C101.253 20.953 106.061 18.7269 107.716 17.9336Z" stroke="black" stroke-linecap="round" stroke-linejoin="round" /></svg>