<svg width="158" height="167" viewBox="0 0 158 167" fill="none" xmlns="http://www.w3.org/2000/svg"><path d="M66.0884 17.4326C69.2867 16.8614 75.1199 16.7761 81.0542 17.0674C86.9854 17.3585 92.9388 18.0226 96.3735 18.9219C119.128 24.8814 140.396 45.2052 147.304 67.5879C148.458 71.3247 149.019 78.5964 148.979 85.8789C148.939 93.1646 148.298 100.324 147.108 103.841C135.768 137.361 103.965 156.529 70.5962 150.009C68.1281 149.527 65.7737 149.005 63.9712 148.554C63.0695 148.328 62.3108 148.12 61.7466 147.945C61.4641 147.858 61.236 147.78 61.0659 147.714C60.9809 147.681 60.9145 147.652 60.8657 147.629C60.817 147.605 60.7984 147.593 60.7983 147.593C60.4715 147.348 59.8925 147.057 59.2563 146.784C58.6061 146.505 57.8507 146.225 57.144 146.012C56.2164 145.732 54.7816 145.038 53.0513 144.055C51.3315 143.078 49.3519 141.835 47.3452 140.482C43.325 137.773 39.2311 134.648 36.9136 132.363C22.24 117.897 13.8641 93.3194 16.5552 72.6104C17.9123 62.1704 21.3081 51.1589 25.7593 42.75C29.9208 34.8867 34.1737 29.621 40.2661 25.791C46.374 21.9513 54.3746 19.5256 66.0884 17.4326Z" stroke="black" stroke-linecap="round" stroke-linejoin="round" /></svg>