<svg width="158" height="210" viewBox="0 0 158 210" fill="none" xmlns="http://www.w3.org/2000/svg"><path d="M63.583 16.3691C65.3608 15.8882 66.6978 15.7548 67.8184 15.9541C70.0304 16.3476 71.5966 18.0715 74.0703 21.7783C76.2748 25.0821 80.8997 31.8348 84.3477 36.7861C87.7984 41.7401 91.0533 46.4566 91.585 47.2734C92.1267 48.1057 94.4078 51.4417 96.6514 54.6826C98.8943 57.9227 105.747 68.0448 111.88 77.1768C114.947 81.7443 117.883 86.0483 120.142 89.3037C121.271 90.9312 122.231 92.2985 122.955 93.3057C123.488 94.0465 123.908 94.6152 124.174 94.9453L124.387 95.1934C127.158 98.0585 128.698 102.708 129.595 111.47C130.116 116.567 132.601 132.853 135.113 147.659C137.628 162.47 140.163 178.743 140.75 183.825C141.279 188.407 141.524 190.661 141.363 192.093C141.286 192.779 141.117 193.253 140.844 193.698C140.559 194.162 140.153 194.607 139.56 195.239C138.285 196.596 135.903 198.321 134.308 199.048C131.034 200.539 128.336 201.656 126.222 202.4C124.113 203.143 122.639 203.492 121.765 203.5C121.762 203.499 121.758 203.498 121.754 203.496C121.719 203.483 121.666 203.458 121.59 203.415C121.438 203.33 121.231 203.194 120.968 203.001C120.442 202.616 119.726 202.031 118.816 201.244C117 199.672 114.443 197.316 111.16 194.191C104.596 187.943 95.1495 178.633 82.9609 166.397L45.998 129.292L45.7236 77.8906C45.6436 62.9083 45.5176 52.0285 45.5732 44.0459C45.6289 36.0541 45.8676 31.0124 46.5059 27.6875C47.1389 24.3904 48.1489 22.8644 49.7002 21.8164C50.4999 21.2762 51.4644 20.8487 52.6553 20.3887C53.8264 19.9362 55.2461 19.4417 56.8477 18.793C59.631 17.6657 61.8057 16.85 63.583 16.3691Z" stroke="black" stroke-linecap="round" stroke-linejoin="round" /></svg>