<svg width="95" height="157" viewBox="0 0 95 157" fill="none" xmlns="http://www.w3.org/2000/svg"><path d="M27.1836 17.5732C28.0203 17.5565 28.6667 17.6027 29.4062 17.8857C30.159 18.1738 31.0436 18.7209 32.3174 19.7705C34.8726 21.8759 38.8603 25.8854 46.3174 33.4912C55.0215 42.3693 65.8563 53.4053 70.3936 58.0166L78.5 66.2529V99.8711C78.5 115.287 78.461 123.77 78.2236 128.617C77.9841 133.507 77.5388 134.545 76.8818 135.259C74.7605 137.566 71.8308 139.226 69.0234 139.98C66.1902 140.742 63.618 140.55 62.1055 139.357C61.8101 139.125 61.4213 138.7 60.8457 137.893C60.2738 137.09 59.5367 135.936 58.5391 134.271C56.5438 130.939 53.5288 125.595 48.75 116.993C47.2997 114.382 45.0583 110.565 43.7646 108.505C43.1239 107.484 42.5426 106.51 42.123 105.766C41.9129 105.393 41.746 105.082 41.6328 104.854C41.5759 104.738 41.5363 104.651 41.5117 104.59C41.5037 104.57 41.4983 104.556 41.4951 104.547C41.4859 104.471 41.4648 104.409 41.457 104.386C41.44 104.334 41.418 104.277 41.3936 104.219C41.3442 104.101 41.274 103.95 41.1885 103.772C41.0165 103.417 40.7701 102.934 40.4688 102.362C39.8655 101.218 39.0348 99.7 38.1221 98.085C33.928 90.6651 30.704 81.6881 24.4219 59.8623C21.6519 50.2373 18.5068 39.3295 17.4326 35.624C15.9317 30.4431 15.3718 27.349 15.8809 25.0713C16.3762 22.8551 17.9108 21.3216 20.9834 19.3525H20.9844C21.6946 18.8974 22.7536 18.4592 23.8984 18.1299C25.041 17.8013 26.2287 17.5922 27.1836 17.5732Z" stroke="black" stroke-linecap="round" stroke-linejoin="round" /></svg>