<svg width="141" height="162" viewBox="0 0 141 162" fill="none" xmlns="http://www.w3.org/2000/svg"><path d="M114.562 1.35547L123.375 2.03329L130.154 7.45589L134.221 16.2676L137.61 31.1797L138.966 44.7362L138.288 73.8827L136.932 84.7279L131.509 104.385L117.952 130.82L98.9709 150.477L79.9901 159.289L63.043 159.966L55.5862 158.611L40.6728 151.155L18.9805 129.464L7.45643 111.841L2.71124 100.996L1.35547 95.573L2.03335 86.7613L9.49008 75.9161L18.3026 72.527L25.7593 73.2048L46.7737 81.3387L58.9757 80.6609L71.8555 73.2048L77.9564 67.1044L84.0574 56.9371L89.4805 42.7028L92.8699 25.7571L98.293 12.8785L105.75 4.74459L114.562 1.35547Z" stroke="black" stroke-linecap="round" stroke-linejoin="round" /></svg>