<svg width="159" height="146" viewBox="0 0 159 146" fill="none" xmlns="http://www.w3.org/2000/svg"><path d="M80.8594 1.36523L94.4491 2.04748L105.321 8.86991L108.718 12.9634L114.154 26.6082L120.27 36.8419L129.782 45.711L144.731 55.2624L152.206 64.1316L156.282 73.683L156.962 86.6456L152.885 99.6082L144.731 112.571L135.898 122.804L125.706 130.991L103.282 141.225L74.0645 143.954L44.8466 139.178L30.5773 133.72L17.6671 125.533L6.11579 111.206L2.71835 100.973L1.35938 83.2344L6.11579 62.7671L19.026 41.6176L33.2953 27.2905L52.3209 13.6456L66.5901 5.45869L80.8594 1.36523Z" stroke="black" stroke-linecap="round" stroke-linejoin="round" /></svg>