<svg width="280" height="259" viewBox="0 0 280 259" fill="none" xmlns="http://www.w3.org/2000/svg"><path d="M149.312 9.67383L175.282 10.5105L198.739 16.3672L221.358 27.2438L237.275 38.9572L254.868 58.2005L265.759 76.6072L274.136 100.034L277.487 120.95V142.704L271.623 171.15L264.921 187.884L248.166 213.82L224.709 234.737L204.603 245.614L179.47 253.98L159.365 256.49L135.07 255.654L114.964 251.47L88.9937 240.594L69.7255 228.044L52.9705 211.31L39.5665 190.394L32.8645 172.824L28.6758 151.07V125.97L32.8645 103.38L42.9175 79.1172L58.8347 55.6905L78.9407 36.4472L99.8844 23.0605L124.179 13.8572L149.312 9.67383Z" stroke="black" stroke-linecap="round" stroke-linejoin="round" /></svg>