<svg width="64" height="124" viewBox="0 0 64 124" fill="none" xmlns="http://www.w3.org/2000/svg">
<path d="M11.9863 0.50293C12.8231 0.486229 13.4695 0.532408 14.209 0.81543C14.9617 1.10352 15.8463 1.65062 17.1201 2.7002C19.6753 4.80561 23.663 8.81509 31.1201 16.4209C39.8242 25.299 50.659 36.335 55.1963 40.9463L63.3027 49.1826V82.8008C63.3027 98.2169 63.2637 106.7 63.0264 111.547C62.7869 116.437 62.3416 117.474 61.6846 118.188C59.5632 120.495 56.6335 122.156 53.8262 122.91C50.993 123.672 48.4208 123.479 46.9082 122.287C46.6129 122.054 46.224 121.63 45.6484 120.822C45.0766 120.02 44.3394 118.866 43.3418 117.2C41.3466 113.869 38.3315 108.524 33.5527 99.9229C32.1024 97.312 29.8611 93.4947 28.5674 91.4346C27.9266 90.4137 27.3453 89.4399 26.9258 88.6953C26.7157 88.3225 26.5487 88.0117 26.4355 87.7832C26.3786 87.6682 26.339 87.5802 26.3145 87.5195C26.3064 87.4997 26.301 87.4857 26.2979 87.4766C26.2886 87.4011 26.2675 87.3389 26.2598 87.3154C26.2427 87.264 26.2207 87.2069 26.1963 87.1484C26.1469 87.0304 26.0768 86.8793 25.9912 86.7021C25.8193 86.3462 25.5728 85.8636 25.2715 85.292C24.6682 84.1476 23.8375 82.6297 22.9248 81.0146C18.7307 73.5948 15.5067 64.6177 9.22461 42.792C6.45462 33.167 3.3095 22.2592 2.23535 18.5537C0.734391 13.3728 0.174522 10.2787 0.683594 8.00098C1.17893 5.78481 2.71357 4.25132 5.78613 2.28223H5.78711C6.49733 1.82704 7.55633 1.38887 8.70117 1.05957C9.84371 0.73097 11.0315 0.521877 11.9863 0.50293Z" stroke="black"/>
</svg>
