<svg width="156" height="151" viewBox="0 0 156 151" fill="none" xmlns="http://www.w3.org/2000/svg">
<path d="M104.512 1.89062C107.629 0.3966 110.613 0.0761501 114.038 1.0752C117.494 2.08307 121.422 4.44074 126.388 8.36621C147.474 25.0341 157.332 50.2193 154.409 80.124C153.375 90.7075 150.133 102.622 146.374 109.723C139.153 123.361 124.191 138.011 111.587 143.812C100.978 148.695 92.6953 150.456 80.418 150.439C71.5963 150.427 64.6063 149.665 58.0479 147.762C51.4901 145.859 45.3376 142.809 38.2012 138.192C12.833 121.782 -1.47296 93.0925 0.720703 63.0342C1.08883 57.9932 1.6032 54.9822 2.75781 52.8945C3.8905 50.8466 5.67602 49.6272 8.80566 48.292C11.3865 47.1914 14.6337 45.7072 16.0244 44.9932C40.6005 32.3692 77.0597 14.4886 93.8271 6.83691C98.0489 4.91 102.857 2.68393 104.512 1.89062Z" stroke="black"/>
</svg>
