<svg width="97" height="189" viewBox="0 0 97 189" fill="none" xmlns="http://www.w3.org/2000/svg">
<path d="M18.5234 1.00391C20.3012 0.522916 21.6383 0.389541 22.7588 0.588867C24.9709 0.982395 26.537 2.70625 29.0107 6.41309C31.2153 9.71686 35.8401 16.4695 39.2881 21.4209C42.7389 26.3749 45.9937 31.0914 46.5254 31.9082C47.0671 32.7405 49.3483 36.0765 51.5918 39.3174C53.8348 42.5575 60.6873 52.6796 66.8203 61.8115C69.8879 66.3791 72.8236 70.683 75.082 73.9385C76.2111 75.566 77.1715 76.9333 77.8955 77.9404C78.4281 78.6813 78.8486 79.25 79.1143 79.5801L79.3271 79.8281C82.0986 82.6932 83.6382 87.3423 84.5352 96.1045C85.0561 101.202 87.5412 117.488 90.0537 132.294C92.568 147.105 95.1032 163.378 95.6904 168.46C96.2193 173.042 96.464 175.296 96.3037 176.728C96.2268 177.414 96.0578 177.888 95.7842 178.333C95.4992 178.796 95.0936 179.242 94.5 179.874C93.2251 181.231 90.8436 182.956 89.248 183.683C85.974 185.173 83.2761 186.291 81.1621 187.035C79.0529 187.778 77.5792 188.127 76.7051 188.135C76.7021 188.134 76.6984 188.132 76.6943 188.131C76.6598 188.118 76.6062 188.092 76.5303 188.05C76.3783 187.964 76.1718 187.829 75.9082 187.636C75.3827 187.25 74.6662 186.666 73.7568 185.879C71.9401 184.307 69.3831 181.951 66.1006 178.826C59.5368 172.577 50.09 163.268 37.9014 151.032L0.938477 113.927L0.664062 62.5254C0.584034 47.5431 0.45806 36.6633 0.513672 28.6807C0.569356 20.6888 0.807981 15.6471 1.44629 12.3223C2.07932 9.02519 3.08928 7.49919 4.64062 6.45117C5.44036 5.91094 6.40485 5.48351 7.5957 5.02344C8.76684 4.57099 10.1865 4.07642 11.7881 3.42773C14.5714 2.3005 16.7461 1.4848 18.5234 1.00391Z" stroke="black"/>
</svg>
