<svg width="134" height="136" viewBox="0 0 134 136" fill="none" xmlns="http://www.w3.org/2000/svg">
<path d="M50.5332 1.02832C53.7316 0.457074 59.5647 0.371804 65.499 0.663086C71.4303 0.954237 77.3836 1.61826 80.8184 2.51758C103.573 8.47706 124.841 28.8009 131.749 51.1836C132.902 54.9204 133.464 62.1921 133.424 69.4746C133.384 76.7603 132.743 83.9194 131.553 87.4365C120.213 120.956 88.4093 140.124 55.041 133.604C52.573 133.122 50.2185 132.601 48.416 132.149C47.5143 131.923 46.7556 131.716 46.1914 131.541C45.9089 131.453 45.6808 131.376 45.5107 131.31C45.4257 131.276 45.3593 131.248 45.3105 131.225C45.2618 131.201 45.2432 131.188 45.2432 131.188C44.9163 130.944 44.3373 130.653 43.7012 130.38C43.0509 130.101 42.2955 129.821 41.5889 129.607C40.6612 129.328 39.2264 128.633 37.4961 127.65C35.7763 126.673 33.7967 125.43 31.79 124.078C27.7698 121.369 23.6759 118.243 21.3584 115.959C6.68478 101.492 -1.69108 76.9151 1 56.2061C2.3571 45.7661 5.75288 34.7546 10.2041 26.3457C14.3656 18.4824 18.6186 13.2167 24.7109 9.38672C30.8188 5.547 38.8195 3.12133 50.5332 1.02832Z" stroke="black"/>
</svg>
